<?xml version="1.0" encoding="utf-8"?>
<!-- Generator: Adobe Illustrator 16.0.0, SVG Export Plug-In . SVG Version: 6.00 Build 0)  -->
<!DOCTYPE svg PUBLIC "-//W3C//DTD SVG 1.1//EN" "http://www.w3.org/Graphics/SVG/1.1/DTD/svg11.dtd">
<svg version="1.1" id="Capa_1" xmlns="http://www.w3.org/2000/svg" xmlns:xlink="http://www.w3.org/1999/xlink" x="0px" y="0px"
	 width="511.481px" height="167.312px" viewBox="0 0 511.481 167.312" enable-background="new 0 0 511.481 167.312"
	 xml:space="preserve">
<g>
	<g>
		<path d="M22.611,0C10.125,0,0,10.125,0,22.611v122.088c0,12.488,10.125,22.613,22.611,22.613h302.863L247.815,0H22.611z"/>
		<linearGradient id="SVGID_1_" gradientUnits="userSpaceOnUse" x1="379.6479" y1="167.3123" x2="379.6479" y2="7.324219e-04">
			<stop  offset="0.3" style="stop-color:#000000"/>
			<stop  offset="1" style="stop-color:#5F5F5F"/>
		</linearGradient>
		<path fill="url(#SVGID_1_)" d="M488.875,0H247.815l77.659,167.312h163.401c12.484,0,22.605-10.127,22.605-22.613V22.611
			C511.481,10.125,501.36,0,488.875,0z"/>
	</g>
</g>
<g id="PLAY_2_">
	<g>
		<g>
			<defs>
				<path id="SVGID_2_" d="M106.338,67.85L83.596,54.721c0,0-41.431-23.924-43.867-25.33c-2.435-1.406-4.862-0.555-4.862,2.384
					c0,4.896,0,51.079,0,51.079s0,49.911,0,52.115c0,2.202,1.734,3.152,3.85,1.931c2.115-1.222,44.878-25.911,44.878-25.911
					l22.741-13.129c0,0,19.295-11.141,21.859-12.62c2.566-1.482,2.319-3.514,0.155-4.679
					C126.188,79.394,106.338,67.85,106.338,67.85z"/>
			</defs>
			<clipPath id="SVGID_3_">
				<use xlink:href="#SVGID_2_"  overflow="visible"/>
			</clipPath>
			
				<linearGradient id="SVGID_4_" gradientUnits="userSpaceOnUse" x1="2895.2563" y1="-1033.2703" x2="2895.2563" y2="-1023.9597" gradientTransform="matrix(12 0 0 12 -34680.0312 12426.2373)">
				<stop  offset="0" style="stop-color:#257CB0"/>
				<stop  offset="0.2863" style="stop-color:#4A93B5"/>
				<stop  offset="0.767" style="stop-color:#78BCBB"/>
				<stop  offset="1" style="stop-color:#89CFBD"/>
			</linearGradient>
			<polygon clip-path="url(#SVGID_3_)" fill="url(#SVGID_4_)" points="34.869,26.992 34.869,82.854 34.869,138.717 91.206,82.855 
							"/>
		</g>
	</g>
	<g>
		<g>
			<defs>
				<path id="SVGID_5_" d="M106.338,67.85L83.596,54.721c0,0-41.431-23.924-43.867-25.33c-2.435-1.406-4.862-0.555-4.862,2.384
					c0,4.896,0,51.079,0,51.079s0,49.911,0,52.115c0,2.202,1.734,3.152,3.85,1.931c2.115-1.222,44.878-25.911,44.878-25.911
					l22.741-13.129c0,0,19.295-11.141,21.859-12.62c2.566-1.482,2.319-3.514,0.155-4.679
					C126.188,79.394,106.338,67.85,106.338,67.85z"/>
			</defs>
			<clipPath id="SVGID_6_">
				<use xlink:href="#SVGID_5_"  overflow="visible"/>
			</clipPath>
			
				<linearGradient id="SVGID_7_" gradientUnits="userSpaceOnUse" x1="2892.9087" y1="-1030.9592" x2="2898.8647" y2="-1030.9592" gradientTransform="matrix(12 0 0 12 -34680.0312 12426.2373)">
				<stop  offset="0" style="stop-color:#52C1AD"/>
				<stop  offset="1" style="stop-color:#DEE89A"/>
			</linearGradient>
			<polygon clip-path="url(#SVGID_6_)" fill="url(#SVGID_7_)" points="106.338,67.85 83.596,54.721 34.869,26.587 34.869,26.992 
				91.206,82.855 			"/>
		</g>
	</g>
	<g>
		<g>
			<defs>
				<path id="SVGID_8_" d="M106.338,67.85L83.596,54.721c0,0-41.431-23.924-43.867-25.33c-2.435-1.406-4.862-0.555-4.862,2.384
					c0,4.896,0,51.079,0,51.079s0,49.911,0,52.115c0,2.202,1.734,3.152,3.85,1.931c2.115-1.222,44.878-25.911,44.878-25.911
					l22.741-13.129c0,0,19.295-11.141,21.859-12.62c2.566-1.482,2.319-3.514,0.155-4.679
					C126.188,79.394,106.338,67.85,106.338,67.85z"/>
			</defs>
			<clipPath id="SVGID_9_">
				<use xlink:href="#SVGID_8_"  overflow="visible"/>
			</clipPath>
			
				<linearGradient id="SVGID_10_" gradientUnits="userSpaceOnUse" x1="2895.8872" y1="-1028.615" x2="2895.8872" y2="-1023.926" gradientTransform="matrix(12 0 0 12 -34680.0312 12426.2373)">
				<stop  offset="0" style="stop-color:#EC413D"/>
				<stop  offset="0.1668" style="stop-color:#DA4452"/>
				<stop  offset="0.5748" style="stop-color:#B0487A"/>
				<stop  offset="0.8619" style="stop-color:#954A92"/>
				<stop  offset="1" style="stop-color:#8A4A9D"/>
			</linearGradient>
			<polygon clip-path="url(#SVGID_9_)" fill="url(#SVGID_10_)" points="34.869,138.717 34.869,139.123 83.596,110.989 
				106.337,97.86 91.206,82.855 			"/>
		</g>
	</g>
	<g>
		<g>
			<defs>
				<path id="SVGID_11_" d="M106.338,67.85L83.596,54.721c0,0-41.431-23.924-43.867-25.33c-2.435-1.406-4.862-0.555-4.862,2.384
					c0,4.896,0,51.079,0,51.079s0,49.911,0,52.115c0,2.202,1.734,3.152,3.85,1.931c2.115-1.222,44.878-25.911,44.878-25.911
					l22.741-13.129c0,0,19.295-11.141,21.859-12.62c2.566-1.482,2.319-3.514,0.155-4.679
					C126.188,79.394,106.338,67.85,106.338,67.85z"/>
			</defs>
			<clipPath id="SVGID_12_">
				<use xlink:href="#SVGID_11_"  overflow="visible"/>
			</clipPath>
			
				<linearGradient id="SVGID_13_" gradientUnits="userSpaceOnUse" x1="2899.3169" y1="-1029.865" x2="2899.3169" y2="-1027.3645" gradientTransform="matrix(12 0 0 12 -34680.0312 12426.2373)">
				<stop  offset="0" style="stop-color:#F58879"/>
				<stop  offset="0.1194" style="stop-color:#F69079"/>
				<stop  offset="0.7128" style="stop-color:#FCB877"/>
				<stop  offset="1" style="stop-color:#FEC874"/>
			</linearGradient>
			<polygon clip-path="url(#SVGID_12_)" fill="url(#SVGID_13_)" points="106.338,67.85 91.206,82.855 106.337,97.86 132.327,82.854 
							"/>
		</g>
	</g>
</g>
<g>
	<path fill="#FFFFFF" d="M389.552,134.696c-2.116,0-4.047-0.392-5.794-1.172c-1.75-0.78-3.22-1.981-4.405-3.6h-0.356
		c0.237,1.895,0.356,3.695,0.356,5.393v13.371h-4.919v-47.077h4.001l0.683,4.446h0.235c1.266-1.779,2.739-3.062,4.42-3.854
		c1.678-0.79,3.605-1.187,5.777-1.187c4.309,0,7.636,1.474,9.977,4.417c2.344,2.945,3.512,7.077,3.512,12.392
		c0,5.337-1.189,9.482-3.569,12.438C397.087,133.219,393.783,134.696,389.552,134.696z M388.84,105.198
		c-3.32,0-5.721,0.92-7.203,2.757c-1.484,1.838-2.244,4.764-2.284,8.775v1.096c0,4.567,0.762,7.834,2.284,9.8
		c1.521,1.968,3.964,2.947,7.321,2.947c2.808,0,5.006-1.132,6.599-3.406c1.59-2.272,2.386-5.405,2.386-9.399
		c0-4.049-0.796-7.16-2.386-9.323C393.966,106.277,391.726,105.198,388.84,105.198z"/>
	<path fill="#FFFFFF" d="M414.435,134.101h-4.92V87.972h4.92V134.101z"/>
	<path fill="#FFFFFF" d="M442.729,134.101l-0.979-4.624h-0.238c-1.62,2.036-3.235,3.416-4.846,4.136
		c-1.612,0.722-3.624,1.083-6.032,1.083c-3.221,0-5.747-0.832-7.576-2.491c-1.828-1.659-2.742-4.021-2.742-7.084
		c0-6.561,5.249-10,15.742-10.317l5.515-0.179v-2.016c0-2.551-0.549-4.434-1.646-5.647c-1.097-1.218-2.852-1.825-5.262-1.825
		c-2.709,0-5.772,0.832-9.19,2.491l-1.513-3.765c1.604-0.871,3.354-1.551,5.264-2.047c1.909-0.492,3.817-0.74,5.736-0.74
		c3.874,0,6.745,0.858,8.613,2.578c1.867,1.72,2.799,4.477,2.799,8.272V134.1L442.729,134.101L442.729,134.101L442.729,134.101z
		 M431.612,130.635c3.062,0,5.468-0.843,7.217-2.521c1.749-1.68,2.626-4.031,2.626-7.058v-2.935l-4.923,0.206
		c-3.914,0.142-6.734,0.747-8.465,1.826c-1.729,1.075-2.593,2.751-2.593,5.025c0,1.779,0.538,3.133,1.615,4.059
		C428.168,130.171,429.672,130.635,431.612,130.635z"/>
	<path fill="#FFFFFF" d="M449.233,101.611h5.274l7.116,18.528c1.561,4.23,2.53,7.284,2.907,9.161h0.236
		c0.257-1.009,0.797-2.732,1.614-5.176c0.821-2.442,3.504-9.945,8.05-22.514h5.277l-13.965,36.997
		c-1.381,3.657-2.998,6.251-4.848,7.786c-1.847,1.531-4.115,2.294-6.801,2.294c-1.503,0-2.984-0.167-4.45-0.503v-3.942
		c1.087,0.237,2.305,0.357,3.647,0.357c3.381,0,5.79-1.899,7.235-5.693l1.808-4.625L449.233,101.611z"/>
	<path fill="#FFFFFF" d="M298.389,104.63c1.563,1.293,4.825,4.009,4.825,9.177c0,5.025-2.855,7.409-5.709,9.648
		c-0.883,0.883-1.903,1.838-1.903,3.335c0,1.49,1.019,2.308,1.769,2.919l2.448,1.9c2.989,2.515,5.706,4.827,5.706,9.518
		c0,6.388-6.187,12.842-17.871,12.842c-9.857,0-14.612-4.688-14.612-9.72c0-2.445,1.218-5.908,5.232-8.292
		c4.211-2.581,9.924-2.918,12.98-3.126c-0.954-1.222-2.037-2.515-2.037-4.617c0-1.154,0.339-1.834,0.678-2.653
		c-0.751,0.068-1.498,0.137-2.178,0.137c-7.202,0-11.279-5.369-11.279-10.668c0-3.127,1.43-6.595,4.348-9.105
		c3.876-3.193,8.497-3.74,12.17-3.74h13.996l-4.349,2.447L298.389,104.63L298.389,104.63L298.389,104.63z M293.564,134.805
		c-0.544-0.071-0.886-0.071-1.561-0.071c-0.611,0-4.286,0.14-7.139,1.092c-1.493,0.541-5.846,2.171-5.846,7
		c0,4.822,4.693,8.293,11.965,8.293c6.521,0,9.989-3.132,9.989-7.342C300.973,140.303,298.732,138.477,293.564,134.805z
		 M295.536,121.891c1.562-1.565,1.695-3.737,1.695-4.962c0-4.893-2.921-12.504-8.56-12.504c-1.77,0-3.672,0.883-4.758,2.244
		c-1.154,1.426-1.497,3.26-1.497,5.028c0,4.552,2.65,12.097,8.498,12.097C292.614,123.795,294.445,122.979,295.536,121.891z"/>
	<path fill="#FFFFFF" d="M255.607,133.719c-10.787,0-16.555-8.415-16.555-16.016c0-8.889,7.258-16.486,17.576-16.486
		c9.97,0,16.213,7.802,16.213,16.013C272.84,125.232,266.669,133.719,255.607,133.719z M264.085,128.222
		c1.632-2.174,2.039-4.887,2.039-7.535c0-5.972-2.851-17.368-11.264-17.368c-2.239,0-4.477,0.882-6.105,2.311
		c-2.646,2.372-3.124,5.358-3.124,8.278c0,6.714,3.325,17.77,11.538,17.77C259.814,131.677,262.53,130.39,264.085,128.222z"/>
	<path fill="#FFFFFF" d="M218.831,133.719c-10.789,0-16.557-8.415-16.557-16.016c0-8.889,7.262-16.486,17.577-16.486
		c9.972,0,16.211,7.802,16.211,16.013C236.064,125.232,229.892,133.719,218.831,133.719z M227.312,128.222
		c1.627-2.174,2.036-4.887,2.036-7.535c0-5.972-2.852-17.368-11.266-17.368c-2.238,0-4.478,0.882-6.105,2.311
		c-2.646,2.372-3.12,5.358-3.12,8.278c0,6.714,3.322,17.77,11.536,17.77C223.039,131.677,225.752,130.39,227.312,128.222z"/>
	<path fill="#FFFFFF" d="M197.091,132.653l-9.757,2.252c-3.958,0.615-7.504,1.155-11.254,1.155c-18.831,0-25.99-13.847-25.99-24.693
		c0-13.232,10.162-25.508,27.56-25.508c3.684,0,7.229,0.544,10.435,1.432c5.115,1.434,7.502,3.204,9.005,4.229l-5.664,5.39
		l-2.387,0.543l1.705-2.729c-2.319-2.248-6.552-6.41-14.599-6.41c-10.778,0-18.897,8.19-18.897,20.127
		c0,12.821,9.279,24.895,24.147,24.895c4.371,0,6.617-0.886,8.665-1.706v-10.979l-10.298,0.545l5.455-2.936h14.462l-1.772,1.704
		c-0.48,0.412-0.547,0.551-0.683,1.091c-0.07,0.615-0.135,2.596-0.135,3.276v8.325L197.091,132.653L197.091,132.653z"/>
	<path fill="#FFFFFF" d="M319.952,130.689c-2.252-0.204-2.725-0.611-2.725-3.275v-0.751V88.805c0.015-0.147,0.022-0.298,0.037-0.44
		c0.276-2.386,0.956-2.795,3.074-4.025h-9.759l-5.117,2.457h5.215v0.029l-0.004-0.023v39.862v2.251c0,1.361-0.269,1.571-1.842,3.615
		h12.077l2.524-1.499C322.275,130.89,321.112,130.825,319.952,130.689z"/>
	<path fill="#FFFFFF" d="M347.709,131.317c-0.743,0.407-1.488,0.883-2.23,1.22c-2.24,1.017-4.543,1.287-6.579,1.287
		c-2.162,0-5.553-0.139-9.011-2.644c-4.806-3.391-6.905-9.215-6.905-14.296c0-10.498,8.534-15.646,15.511-15.646
		c2.441,0,4.951,0.609,6.982,1.898c3.385,2.232,4.265,5.145,4.736,6.704l-15.915,6.438l-5.218,0.407
		c1.69,8.603,7.517,13.61,13.955,13.61c3.453,0,5.961-1.216,8.265-2.365L347.709,131.317z M341.343,111.126
		c1.285-0.472,1.963-0.88,1.963-1.827c0-2.709-3.048-5.826-6.709-5.826c-2.714,0-7.791,2.102-7.791,9.416
		c0,1.15,0.137,2.371,0.206,3.593L341.343,111.126z"/>
	<path fill="#FFFFFF" d="M354.248,101.703v4.469h-0.543v-4.469h-1.479v-0.465h3.5v0.465H354.248z"/>
	<path fill="#FFFFFF" d="M360.341,106.172v-4.512h-0.025l-1.376,4.512h-0.423l-1.39-4.512h-0.019v4.512h-0.492v-4.934h0.846
		l1.256,3.988h0.017l1.238-3.988h0.858v4.934H360.341z"/>
</g>
<g enable-background="new    ">
	<path fill="#FFFFFF" d="M150.09,28.331c2.438-0.368,5.336-0.644,8.511-0.644c5.75,0,9.845,1.334,12.56,3.864
		c2.76,2.53,4.371,6.118,4.371,11.133c0,5.061-1.564,9.201-4.463,12.054c-2.898,2.898-7.683,4.463-13.709,4.463
		c-2.852,0-5.245-0.139-7.269-0.368V28.331z M154.093,55.75c1.012,0.185,2.484,0.23,4.048,0.23c8.557,0,13.204-4.784,13.204-13.157
		c0.046-7.315-4.095-11.962-12.56-11.962c-2.07,0-3.634,0.185-4.692,0.414V55.75z"/>
	<path fill="#FFFFFF" d="M184.636,30.402c0.046,1.38-0.966,2.484-2.576,2.484c-1.426,0-2.438-1.104-2.438-2.484
		c0-1.426,1.058-2.53,2.53-2.53C183.67,27.871,184.636,28.976,184.636,30.402z M180.127,58.925V36.658h4.048v22.267H180.127z"/>
	<path fill="#FFFFFF" d="M189.879,54.784c1.196,0.782,3.312,1.61,5.337,1.61c2.944,0,4.324-1.473,4.324-3.312
		c0-1.932-1.15-2.99-4.14-4.095c-4.002-1.426-5.889-3.634-5.889-6.303c0-3.588,2.898-6.532,7.683-6.532
		c2.254,0,4.232,0.644,5.475,1.38l-1.012,2.944c-0.874-0.552-2.484-1.288-4.554-1.288c-2.393,0-3.727,1.38-3.727,3.036
		c0,1.841,1.334,2.669,4.232,3.772c3.864,1.473,5.843,3.404,5.843,6.717c0,3.911-3.037,6.671-8.327,6.671
		c-2.438,0-4.692-0.598-6.256-1.519L189.879,54.784z"/>
	<path fill="#FFFFFF" d="M208.187,43.927c0-2.852-0.092-5.152-0.184-7.269h3.634l0.184,3.818h0.092
		c1.656-2.714,4.278-4.324,7.913-4.324c5.383,0,9.432,4.555,9.432,11.317c0,8.005-4.877,11.961-10.121,11.961
		c-2.945,0-5.521-1.288-6.855-3.496h-0.092v12.1h-4.002V43.927z M212.189,49.862c0,0.599,0.092,1.15,0.184,1.656
		c0.736,2.807,3.174,4.739,6.073,4.739c4.278,0,6.763-3.497,6.763-8.604c0-4.462-2.347-8.28-6.625-8.28
		c-2.76,0-5.336,1.978-6.119,5.014c-0.138,0.507-0.276,1.104-0.276,1.656V49.862z"/>
	<path fill="#FFFFFF" d="M254.051,47.608c0,8.235-5.705,11.823-11.087,11.823c-6.027,0-10.674-4.416-10.674-11.455
		c0-7.453,4.877-11.823,11.041-11.823C249.727,36.153,254.051,40.799,254.051,47.608z M236.385,47.838
		c0,4.876,2.807,8.557,6.763,8.557c3.864,0,6.763-3.635,6.763-8.649c0-3.772-1.886-8.557-6.671-8.557
		C238.455,39.189,236.385,43.606,236.385,47.838z"/>
	<path fill="#FFFFFF" d="M258.694,42.685c0-2.3-0.045-4.187-0.184-6.026h3.588l0.23,3.681h0.092
		c1.104-2.116,3.682-4.187,7.361-4.187c3.082,0,7.867,1.84,7.867,9.477v13.296H273.6V46.089c0-3.588-1.334-6.578-5.152-6.578
		c-2.668,0-4.738,1.886-5.43,4.141c-0.184,0.506-0.275,1.196-0.275,1.886v13.388h-4.049V42.685z"/>
	<path fill="#FFFFFF" d="M288.272,30.402c0.047,1.38-0.967,2.484-2.576,2.484c-1.426,0-2.438-1.104-2.438-2.484
		c0-1.426,1.057-2.53,2.529-2.53C287.305,27.871,288.272,28.976,288.272,30.402z M283.764,58.925V36.658h4.049v22.267H283.764z"/>
	<path fill="#FFFFFF" d="M293.883,58.925c0.092-1.519,0.184-3.772,0.184-5.751V26.261h4.004v13.986h0.092
		c1.426-2.484,4.002-4.095,7.59-4.095c5.521,0,9.432,4.601,9.385,11.363c0,7.959-5.014,11.915-9.982,11.915
		c-3.221,0-5.797-1.242-7.453-4.187h-0.139l-0.184,3.681H293.883z M298.071,50c0,0.506,0.092,1.012,0.184,1.472
		c0.781,2.807,3.127,4.739,6.072,4.739c4.232,0,6.762-3.451,6.762-8.558c0-4.462-2.299-8.28-6.623-8.28
		c-2.762,0-5.338,1.886-6.166,4.968c-0.092,0.46-0.229,1.013-0.229,1.656V50z"/>
	<path fill="#FFFFFF" d="M319.782,26.261h4.049v32.664h-4.049V26.261z"/>
	<path fill="#FFFFFF" d="M332.43,48.528c0.094,5.475,3.59,7.729,7.639,7.729c2.896,0,4.646-0.507,6.164-1.15l0.689,2.898
		c-1.426,0.644-3.863,1.38-7.406,1.38c-6.855,0-10.949-4.509-10.949-11.226s3.957-12.007,10.443-12.007
		c7.268,0,9.201,6.395,9.201,10.489c0,0.828-0.092,1.472-0.139,1.886H332.43z M344.301,45.629c0.045-2.576-1.059-6.578-5.613-6.578
		c-4.096,0-5.889,3.772-6.211,6.578H344.301z"/>
	<path fill="#FFFFFF" d="M364.307,48.528c0.094,5.475,3.59,7.729,7.639,7.729c2.896,0,4.646-0.507,6.164-1.15l0.689,2.898
		c-1.426,0.644-3.863,1.38-7.406,1.38c-6.855,0-10.949-4.509-10.949-11.226s3.957-12.007,10.443-12.007
		c7.268,0,9.201,6.395,9.201,10.489c0,0.828-0.092,1.472-0.139,1.886H364.307z M376.178,45.629c0.045-2.576-1.059-6.578-5.613-6.578
		c-4.096,0-5.889,3.772-6.211,6.578H376.178z"/>
	<path fill="#FFFFFF" d="M384.639,42.685c0-2.3-0.045-4.187-0.184-6.026h3.588l0.23,3.681h0.092
		c1.104-2.116,3.682-4.187,7.361-4.187c3.082,0,7.867,1.84,7.867,9.477v13.296h-4.049V46.089c0-3.588-1.334-6.578-5.152-6.578
		c-2.668,0-4.738,1.886-5.43,4.141c-0.184,0.506-0.275,1.196-0.275,1.886v13.388h-4.049V42.685z"/>
</g>
</svg>
