<?xml version="1.0" encoding="utf-8"?>
<!-- Generator: Adobe Illustrator 16.0.0, SVG Export Plug-In . SVG Version: 6.00 Build 0)  -->
<!DOCTYPE svg PUBLIC "-//W3C//DTD SVG 1.1//EN" "http://www.w3.org/Graphics/SVG/1.1/DTD/svg11.dtd">
<svg version="1.1" id="Capa_1" xmlns="http://www.w3.org/2000/svg" xmlns:xlink="http://www.w3.org/1999/xlink" x="0px" y="0px"
	 width="511.481px" height="167.312px" viewBox="0 0 511.481 167.312" enable-background="new 0 0 511.481 167.312"
	 xml:space="preserve">
<g>
	<g>
		<path d="M22.611,0C10.125,0,0,10.125,0,22.611v122.088c0,12.488,10.125,22.613,22.611,22.613h302.863L247.815,0H22.611z"/>
		<linearGradient id="SVGID_1_" gradientUnits="userSpaceOnUse" x1="379.6479" y1="167.3123" x2="379.6479" y2="7.324219e-04">
			<stop  offset="0.3" style="stop-color:#000000"/>
			<stop  offset="1" style="stop-color:#5F5F5F"/>
		</linearGradient>
		<path fill="url(#SVGID_1_)" d="M488.875,0H247.815l77.659,167.312h163.401c12.484,0,22.605-10.127,22.605-22.613V22.611
			C511.481,10.125,501.36,0,488.875,0z"/>
	</g>
	<g enable-background="new    ">
		<path fill="#FFFFFF" d="M125.543,28.331c2.438-0.368,5.336-0.644,8.511-0.644c5.75,0,9.845,1.334,12.56,3.864
			c2.76,2.53,4.371,6.118,4.371,11.133c0,5.061-1.564,9.201-4.463,12.054c-2.898,2.898-7.683,4.463-13.709,4.463
			c-2.852,0-5.245-0.139-7.269-0.368V28.331z M129.545,55.75c1.012,0.185,2.484,0.23,4.048,0.23c8.557,0,13.204-4.784,13.204-13.157
			c0.046-7.315-4.095-11.962-12.56-11.962c-2.07,0-3.634,0.185-4.692,0.414V55.75z"/>
		<path fill="#FFFFFF" d="M160.088,30.402c0.046,1.38-0.966,2.484-2.576,2.484c-1.426,0-2.438-1.104-2.438-2.484
			c0-1.426,1.058-2.53,2.53-2.53C159.123,27.871,160.088,28.976,160.088,30.402z M155.58,58.925V36.658h4.048v22.267H155.58z"/>
		<path fill="#FFFFFF" d="M165.332,54.784c1.196,0.782,3.312,1.61,5.337,1.61c2.944,0,4.324-1.473,4.324-3.312
			c0-1.932-1.15-2.99-4.14-4.095c-4.002-1.426-5.889-3.634-5.889-6.303c0-3.588,2.898-6.532,7.683-6.532
			c2.254,0,4.232,0.644,5.475,1.38l-1.012,2.944c-0.874-0.552-2.484-1.288-4.554-1.288c-2.393,0-3.727,1.38-3.727,3.036
			c0,1.841,1.334,2.669,4.232,3.772c3.864,1.473,5.843,3.404,5.843,6.717c0,3.911-3.037,6.671-8.327,6.671
			c-2.438,0-4.692-0.598-6.256-1.519L165.332,54.784z"/>
		<path fill="#FFFFFF" d="M183.64,43.927c0-2.852-0.092-5.152-0.184-7.269h3.634l0.184,3.818h0.092
			c1.656-2.714,4.278-4.324,7.913-4.324c5.383,0,9.432,4.555,9.432,11.317c0,8.005-4.877,11.961-10.121,11.961
			c-2.945,0-5.521-1.288-6.855-3.496h-0.092v12.1h-4.002V43.927z M187.642,49.862c0,0.599,0.092,1.15,0.184,1.656
			c0.736,2.807,3.174,4.739,6.073,4.739c4.278,0,6.763-3.497,6.763-8.604c0-4.462-2.347-8.28-6.625-8.28
			c-2.76,0-5.336,1.978-6.119,5.014c-0.138,0.507-0.276,1.104-0.276,1.656V49.862z"/>
		<path fill="#FFFFFF" d="M229.503,47.608c0,8.235-5.705,11.823-11.087,11.823c-6.027,0-10.674-4.416-10.674-11.455
			c0-7.453,4.877-11.823,11.041-11.823C225.179,36.153,229.503,40.799,229.503,47.608z M211.837,47.838
			c0,4.876,2.807,8.557,6.763,8.557c3.864,0,6.763-3.635,6.763-8.649c0-3.772-1.886-8.557-6.671-8.557
			C213.908,39.189,211.837,43.606,211.837,47.838z"/>
		<path fill="#FFFFFF" d="M234.147,42.685c0-2.3-0.046-4.187-0.184-6.026h3.588l0.23,3.681h0.092
			c1.104-2.116,3.681-4.187,7.36-4.187c3.083,0,7.867,1.84,7.867,9.477v13.296h-4.049V46.089c0-3.588-1.334-6.578-5.152-6.578
			c-2.668,0-4.738,1.886-5.429,4.141c-0.184,0.506-0.275,1.196-0.275,1.886v13.388h-4.049V42.685z"/>
		<path fill="#FFFFFF" d="M263.724,30.402c0.047,1.38-0.967,2.484-2.576,2.484c-1.426,0-2.438-1.104-2.438-2.484
			c0-1.426,1.057-2.53,2.529-2.53C262.757,27.871,263.724,28.976,263.724,30.402z M259.216,58.925V36.658h4.049v22.267H259.216z"/>
		<path fill="#FFFFFF" d="M269.335,58.925c0.092-1.519,0.184-3.772,0.184-5.751V26.261h4.004v13.986h0.092
			c1.426-2.484,4.002-4.095,7.59-4.095c5.521,0,9.432,4.601,9.385,11.363c0,7.959-5.014,11.915-9.982,11.915
			c-3.221,0-5.797-1.242-7.453-4.187h-0.139l-0.184,3.681H269.335z M273.523,50c0,0.506,0.092,1.012,0.184,1.472
			c0.781,2.807,3.127,4.739,6.072,4.739c4.232,0,6.762-3.451,6.762-8.558c0-4.462-2.299-8.28-6.623-8.28
			c-2.762,0-5.338,1.886-6.166,4.968c-0.092,0.46-0.229,1.013-0.229,1.656V50z"/>
		<path fill="#FFFFFF" d="M295.234,26.261h4.049v32.664h-4.049V26.261z"/>
		<path fill="#FFFFFF" d="M307.882,48.528c0.094,5.475,3.59,7.729,7.639,7.729c2.896,0,4.646-0.507,6.164-1.15l0.689,2.898
			c-1.426,0.644-3.863,1.38-7.406,1.38c-6.855,0-10.949-4.509-10.949-11.226s3.957-12.007,10.443-12.007
			c7.268,0,9.201,6.395,9.201,10.489c0,0.828-0.092,1.472-0.139,1.886H307.882z M319.753,45.629
			c0.045-2.576-1.059-6.578-5.613-6.578c-4.096,0-5.889,3.772-6.211,6.578H319.753z"/>
		<path fill="#FFFFFF" d="M339.759,48.528c0.094,5.475,3.59,7.729,7.639,7.729c2.896,0,4.646-0.507,6.164-1.15l0.689,2.898
			c-1.426,0.644-3.863,1.38-7.406,1.38c-6.855,0-10.949-4.509-10.949-11.226s3.957-12.007,10.443-12.007
			c7.268,0,9.201,6.395,9.201,10.489c0,0.828-0.092,1.472-0.139,1.886H339.759z M351.63,45.629c0.045-2.576-1.059-6.578-5.613-6.578
			c-4.096,0-5.889,3.772-6.211,6.578H351.63z"/>
		<path fill="#FFFFFF" d="M360.091,42.685c0-2.3-0.045-4.187-0.184-6.026h3.588l0.23,3.681h0.092
			c1.104-2.116,3.682-4.187,7.361-4.187c3.082,0,7.867,1.84,7.867,9.477v13.296h-4.049V46.089c0-3.588-1.334-6.578-5.152-6.578
			c-2.668,0-4.738,1.886-5.43,4.141c-0.184,0.506-0.275,1.196-0.275,1.886v13.388h-4.049V42.685z"/>
		<path fill="#FFFFFF" d="M396.707,48.528c0.092,5.475,3.588,7.729,7.637,7.729c2.898,0,4.646-0.507,6.164-1.15l0.691,2.898
			c-1.428,0.644-3.865,1.38-7.408,1.38c-6.854,0-10.949-4.509-10.949-11.226s3.957-12.007,10.443-12.007
			c7.27,0,9.201,6.395,9.201,10.489c0,0.828-0.092,1.472-0.137,1.886H396.707z M408.576,45.629c0.047-2.576-1.059-6.578-5.613-6.578
			c-4.094,0-5.889,3.772-6.211,6.578H408.576z"/>
		<path fill="#FFFFFF" d="M417.039,26.261h4.049v32.664h-4.049V26.261z"/>
	</g>
	<g>
		<path fill="#FFFFFF" d="M146.994,71.452l-21.451,63.145h9.822l6.405-19.39h20.77l6.585,19.39h10.096l-21.545-63.145H146.994z
			 M152.084,81.834c0.724,2.818,1.505,5.745,2.51,8.907l5.781,16.742h-16.453l5.701-16.851
			C150.492,87.9,151.314,84.949,152.084,81.834z"/>
		<path fill="#FFFFFF" d="M206.979,87.821c-6.507,0-11.72,2.511-15.188,7.285l-0.381-6.281h-8.738l0.053,0.805
			c0.256,3.911,0.365,8.219,0.365,14.401v48.67h9.551v-22.713c2.965,3.547,7.699,5.611,13.061,5.611
			c5.584,0,10.728-2.188,14.477-6.154c4.184-4.423,6.393-10.78,6.393-18.376c0-6.712-1.917-12.515-5.551-16.778
			C217.461,90.118,212.477,87.821,206.979,87.821z M204.6,95.729c8.516,0,12.327,7.89,12.327,15.706
			c0,10.084-4.862,16.348-12.69,16.348c-5.344,0-9.967-3.637-11.254-8.864c-0.221-0.812-0.342-1.884-0.342-3.094v-7.683
			c0-0.695,0.156-1.539,0.306-2.357c0.047-0.262,0.099-0.521,0.138-0.775C194.508,99.543,199.237,95.729,204.6,95.729z"/>
		<path fill="#FFFFFF" d="M256.174,87.821c-6.506,0-11.717,2.511-15.189,7.285l-0.379-6.281h-8.737l0.05,0.805
			c0.258,3.915,0.367,8.219,0.367,14.401v48.67h9.555v-22.713c2.963,3.547,7.693,5.611,13.055,5.611
			c5.586,0,10.728-2.188,14.481-6.154c4.181-4.423,6.39-10.78,6.39-18.376c0-6.712-1.92-12.515-5.554-16.778
			C266.657,90.118,261.672,87.821,256.174,87.821z M253.797,95.729c8.514,0,12.325,7.89,12.325,15.706
			c0,10.084-4.865,16.348-12.689,16.348c-5.342,0-9.969-3.637-11.256-8.864c-0.221-0.812-0.336-1.884-0.336-3.094v-7.683
			c0-0.699,0.152-1.547,0.305-2.365c0.047-0.258,0.094-0.515,0.139-0.769C243.703,99.543,248.434,95.729,253.797,95.729z"/>
		<path fill="#FFFFFF" d="M317.805,98.207c-8.916-3.453-11.773-6.169-11.773-11.185c0-4.225,3.357-8.484,10.859-8.484
			c6.189,0,10.15,2.152,11.215,2.814l0.811,0.5l2.695-7.973l-0.533-0.312c-1.6-0.938-6.16-3.122-13.912-3.122
			c-12.184,0-20.69,7.193-20.69,17.488c0,8.303,5.328,14.104,16.771,18.264c8.104,3.031,11.123,6.136,11.123,11.457
			c0,6.023-4.654,9.762-12.144,9.762c-4.877,0-9.896-1.423-13.771-3.903l-0.828-0.532l-2.563,8.157l0.472,0.312
			c3.604,2.408,10.395,4.15,16.145,4.15c16.42,0,22.242-10.012,22.242-18.586C333.92,108.177,329.252,102.723,317.805,98.207z"/>
		<path fill="#FFFFFF" d="M351.118,77.947l-9.371,2.941v7.937h-6.857v7.636h6.857v23.39c0,5.654,1.082,9.617,3.309,12.121
			c2.135,2.34,5.418,3.629,9.242,3.629c3.613,0,6.178-0.713,7.385-1.142l0.535-0.188l-0.457-7.649l-0.916,0.282
			c-1.207,0.37-2.449,0.514-4.443,0.514c-3.703,0-5.283-2.344-5.283-7.842V96.461h11.523v-7.636h-11.523V77.947L351.118,77.947z"/>
		<path fill="#FFFFFF" d="M386.316,87.821c-13.366,0-22.7,9.977-22.7,24.255c0,13.853,9.032,23.523,21.969,23.523h0.09
			c10.935,0,22.701-7.618,22.701-24.347c0-6.803-2.104-12.645-6.088-16.898C398.279,90.082,392.756,87.821,386.316,87.821z
			 M386.042,95.363c8.596,0,12.506,8.378,12.506,16.166c0,9.577-5.338,16.528-12.688,16.528h-0.092
			c-7.246,0-12.507-6.835-12.507-16.253C373.262,103.622,377.213,95.363,386.042,95.363z"/>
		<path fill="#FFFFFF" d="M437.637,88.264l-0.572-0.146c-0.842-0.21-1.529-0.297-2.377-0.297c-4.998,0-9.482,2.942-11.979,7.69
			l-0.281-6.688h-8.572l0.055,0.804c0.254,3.782,0.361,8.027,0.361,13.759l-0.09,31.209h9.555v-24.35
			c0-1.324,0.092-2.579,0.262-3.702c1.08-5.85,5.025-9.629,10.053-9.629c0.98,0,1.748,0.08,2.566,0.16l1.02,0.105V88.264
			L437.637,88.264z"/>
		<path fill="#FFFFFF" d="M459.118,87.73c-12.719,0-21.605,10.161-21.605,24.711c0,14.012,8.838,23.067,22.518,23.067
			c7.191,0,12.195-1.579,15.127-2.901l0.574-0.26l-1.834-7.118l-0.801,0.321c-2.602,1.059-6.062,2.141-11.971,2.141
			c-4.15,0-13.721-1.369-14.309-13.852l30.838,0.092l0.123-0.609c0.195-0.971,0.289-2.278,0.289-3.988
			C478.069,99.369,473.106,87.73,459.118,87.73z M458.479,94.998c2.91,0,5.271,0.9,7.014,2.677c2.748,2.797,3.23,6.916,3.289,8.893
			h-21.785C447.881,101.051,451.333,94.998,458.479,94.998z"/>
	</g>
	<g>
		<rect x="39.523" y="47.148" fill="none" width="51.547" height="73.016"/>
		<path fill="none" d="M65.298,123.672c-3.326,0-6.021,2.695-6.021,6.02c0,3.33,2.696,6.025,6.021,6.025
			c3.328,0,6.023-2.695,6.023-6.025C71.321,126.367,68.626,123.672,65.298,123.672z"/>
		<path fill="#FFFFFF" d="M86.128,28.461H44.465c-4.992,0-9.041,4.046-9.041,9.041v92.302c0,4.996,4.049,9.045,9.041,9.045h41.663
			c4.995,0,9.046-4.049,9.046-9.045V37.502C95.174,32.507,91.124,28.461,86.128,28.461z M59.216,36.838h12.167
			c1.059,0,1.917,0.857,1.917,1.916s-0.858,1.917-1.917,1.917H59.216c-1.059,0-1.917-0.858-1.917-1.917S58.157,36.838,59.216,36.838
			z M65.298,135.717c-3.325,0-6.021-2.695-6.021-6.025c0-3.324,2.695-6.02,6.021-6.02c3.328,0,6.023,2.695,6.023,6.02
			C71.321,133.021,68.626,135.717,65.298,135.717z M91.07,120.164H39.523V47.148H91.07V120.164z"/>
	</g>
</g>
</svg>
